<svg width="236" height="353" xmlns="http://www.w3.org/2000/svg" xmlns:xlink="http://www.w3.org/1999/xlink" overflow="hidden"><defs><clipPath id="clip0"><rect x="314" y="155" width="236" height="353"/></clipPath><radialGradient cx="1.905e+06" cy="0.125" r="3.60243e+06" fy="0" gradientUnits="userSpaceOnUse" spreadMethod="pad" id="fill1" gradientTransform="matrix(0.000104987 0 0 0.000104987 339 167)"><stop offset="0" stop-color="#2616FF"/><stop offset="0.67" stop-color="#718EFF"/><stop offset="0.96" stop-color="#FF85FC"/><stop offset="1" stop-color="#FFCEFE"/></radialGradient><radialGradient cx="276225" cy="0.015625" r="390641" fx="276225" fy="0" gradientUnits="userSpaceOnUse" spreadMethod="pad" id="fill2" gradientTransform="matrix(0.000104987 0 0 0.000104987 345 479)"><stop offset="0" stop-color="#2616FF"/><stop offset="0.67" stop-color="#718EFF"/><stop offset="0.96" stop-color="#FF85FC"/><stop offset="1" stop-color="#FFCEFE"/></radialGradient><radialGradient cx="273269" cy="0" r="386461" fx="273269" fy="-3.47908e-11" gradientUnits="userSpaceOnUse" spreadMethod="pad" id="fill3" gradientTransform="matrix(0.000103692 -1.64402e-05 1.64402e-05 0.000103692 518.443 371.019)"><stop offset="0" stop-color="#2616FF"/><stop offset="0.67" stop-color="#718EFF"/><stop offset="0.96" stop-color="#FF85FC"/><stop offset="1" stop-color="#FFCEFE"/></radialGradient><radialGradient cx="533400" cy="0" r="754342" fy="-6.79089e-11" gradientUnits="userSpaceOnUse" spreadMethod="pad" id="fill4" gradientTransform="matrix(0.000104987 0 0 0.000104987 315 254)"><stop offset="0" stop-color="#2616FF"/><stop offset="0.67" stop-color="#718EFF"/><stop offset="0.96" stop-color="#FF85FC"/><stop offset="1" stop-color="#FFCEFE"/></radialGradient><radialGradient cx="190500" cy="0" r="269408" fy="-2.42532e-11" gradientUnits="userSpaceOnUse" spreadMethod="pad" id="fill5" gradientTransform="matrix(0.000104987 0 0 0.000104987 497 156)"><stop offset="0" stop-color="#2616FF"/><stop offset="0.67" stop-color="#718EFF"/><stop offset="0.96" stop-color="#FF85FC"/><stop offset="1" stop-color="#FFCEFE"/></radialGradient></defs><g clip-path="url(#clip0)" transform="translate(-314 -155)"><path d="M497.03 167C389.216 197.795 332.602 248.077 339.576 283.928 346.549 319.778 533.824 341.932 538.87 382.103 543.917 422.274 399.951 482.025 372.608 488" fill="url(#fill1)" fill-rule="evenodd"/><path d="M345 493.5C345 485.492 351.492 479 359.5 479 367.508 479 374 485.492 374 493.5 374 501.508 367.508 508 359.5 508 351.492 508 345 501.508 345 493.5Z" fill="url(#fill2)" fill-rule="evenodd"/><path d="M520.689 385.187C519.449 377.363 524.786 370.014 532.611 368.773 540.435 367.533 547.784 372.87 549.025 380.695 550.266 388.519 544.928 395.868 537.103 397.109 529.279 398.349 521.93 393.012 520.689 385.187Z" fill="url(#fill3)" fill-rule="evenodd"/><path d="M315 282C315 266.536 327.536 254 343 254 358.464 254 371 266.536 371 282 371 297.464 358.464 310 343 310 327.536 310 315 297.464 315 282Z" fill="url(#fill4)" fill-rule="evenodd"/><path d="M497 166C497 160.477 501.477 156 507 156 512.523 156 517 160.477 517 166 517 171.523 512.523 176 507 176 501.477 176 497 171.523 497 166Z" fill="url(#fill5)" fill-rule="evenodd"/></g></svg>